<svg width="181" height="40" viewBox="0 0 181 40" fill="none" xmlns="http://www.w3.org/2000/svg">
<rect width="40" height="40" rx="4" fill="#EC6955"/>
<path d="M71.456 12.7L71.312 18.004H69.968C70 17.108 69.92 16.372 69.728 15.796C69.536 15.204 69.224 14.764 68.792 14.476C68.376 14.188 67.832 14.052 67.16 14.068H65.696L65.048 25.924C65.032 26.356 65 26.756 64.952 27.124C64.92 27.492 64.888 27.78 64.856 27.988C65.048 27.972 65.264 27.964 65.504 27.964C65.76 27.948 66 27.94 66.224 27.94C66.464 27.924 66.656 27.916 66.8 27.916L66.728 29.5H60.224L60.32 28.18C60.736 28.164 61.064 28.084 61.304 27.94C61.56 27.796 61.752 27.556 61.88 27.22C62.008 26.884 62.088 26.412 62.12 25.804L62.768 14.092H61.208C60.264 14.108 59.528 14.428 59 15.052C58.472 15.676 58.176 16.66 58.112 18.004H56.744L57.152 12.7H71.456ZM78.582 16.2812C79.7383 16.2812 80.7305 16.5195 81.5586 16.9961C82.3867 17.4727 83.0234 18.1484 83.4688 19.0234C83.9141 19.8984 84.1367 20.9453 84.1367 22.1641V23.6406H75.4766C75.5078 24.8984 75.8438 25.8672 76.4844 26.5469C77.1328 27.2266 78.0391 27.5664 79.2031 27.5664C80.0312 27.5664 80.7734 27.4883 81.4297 27.332C82.0938 27.168 82.7773 26.9297 83.4805 26.6172V28.8555C82.832 29.1602 82.1719 29.3828 81.5 29.5234C80.8281 29.6641 80.0234 29.7344 79.0859 29.7344C77.8125 29.7344 76.6914 29.4883 75.7227 28.9961C74.7617 28.4961 74.0078 27.7539 73.4609 26.7695C72.9219 25.7852 72.6523 24.5625 72.6523 23.1016C72.6523 21.6484 72.8984 20.4141 73.3906 19.3984C73.8828 18.3828 74.5742 17.6094 75.4648 17.0781C76.3555 16.5469 77.3945 16.2812 78.582 16.2812ZM78.582 18.3555C77.7148 18.3555 77.0117 18.6367 76.4727 19.1992C75.9414 19.7617 75.6289 20.5859 75.5352 21.6719H81.4414C81.4336 21.0234 81.3242 20.4492 81.1133 19.9492C80.9102 19.4492 80.5977 19.0586 80.1758 18.7773C79.7617 18.4961 79.2305 18.3555 78.582 18.3555ZM101.902 16.2812C103.355 16.2812 104.449 16.6562 105.184 17.4062C105.926 18.1562 106.297 19.3594 106.297 21.0156V29.5H103.543V21.5078C103.543 20.5234 103.352 19.7812 102.969 19.2812C102.586 18.7812 102.004 18.5312 101.223 18.5312C100.129 18.5312 99.3398 18.8828 98.8555 19.5859C98.3789 20.2812 98.1406 21.293 98.1406 22.6211V29.5H95.3867V21.5078C95.3867 20.8516 95.3008 20.3047 95.1289 19.8672C94.9648 19.4219 94.7109 19.0898 94.3672 18.8711C94.0234 18.6445 93.5898 18.5312 93.0664 18.5312C92.3086 18.5312 91.7031 18.7031 91.25 19.0469C90.8047 19.3906 90.4844 19.8984 90.2891 20.5703C90.0938 21.2344 89.9961 22.0508 89.9961 23.0195V29.5H87.2422V16.5273H89.3867L89.7734 18.2734H89.9258C90.1914 17.8203 90.5195 17.4492 90.9102 17.1602C91.3086 16.8633 91.75 16.6445 92.2344 16.5039C92.7188 16.3555 93.2227 16.2812 93.7461 16.2812C94.7148 16.2812 95.5312 16.4531 96.1953 16.7969C96.8594 17.1328 97.3555 17.6484 97.6836 18.3438H97.8945C98.3008 17.6406 98.8672 17.1211 99.5938 16.7852C100.32 16.4492 101.09 16.2812 101.902 16.2812ZM108.964 35.62V34.348C109.38 34.348 109.684 34.236 109.876 34.012C110.068 33.788 110.204 33.476 110.284 33.076C110.364 32.692 110.42 32.26 110.452 31.78C110.612 30.068 110.748 28.548 110.86 27.22C110.972 25.876 111.06 24.716 111.124 23.74C111.204 22.764 111.26 21.972 111.292 21.364C111.34 20.74 111.364 20.292 111.364 20.02C111.364 19.716 111.324 19.492 111.244 19.348C111.18 19.204 111.068 19.132 110.908 19.132C110.7 19.132 110.476 19.284 110.236 19.588C109.996 19.876 109.772 20.404 109.564 21.172L108.46 20.86C108.524 20.54 108.628 20.172 108.772 19.756C108.916 19.34 109.116 18.94 109.372 18.556C109.628 18.172 109.94 17.86 110.308 17.62C110.692 17.364 111.14 17.236 111.652 17.236C112.228 17.236 112.692 17.42 113.044 17.788C113.396 18.156 113.572 18.74 113.572 19.54C113.572 19.892 113.548 20.22 113.5 20.524C113.468 20.812 113.428 21.108 113.38 21.412H113.428C113.828 20.276 114.26 19.412 114.724 18.82C115.204 18.212 115.692 17.796 116.188 17.572C116.684 17.348 117.148 17.236 117.58 17.236C118.348 17.236 118.988 17.436 119.5 17.836C120.012 18.236 120.396 18.78 120.652 19.468C120.908 20.156 121.036 20.948 121.036 21.844C121.036 23.38 120.78 24.748 120.268 25.948C119.772 27.132 119.012 28.068 117.988 28.756C116.98 29.428 115.708 29.764 114.172 29.764C114.044 29.764 113.9 29.756 113.74 29.74C113.58 29.74 113.428 29.732 113.284 29.716C113.236 30.644 113.188 31.388 113.14 31.948C113.108 32.524 113.076 32.972 113.044 33.292C113.028 33.628 112.996 33.916 112.948 34.156C113.204 34.124 113.476 34.1 113.764 34.084C114.068 34.084 114.316 34.084 114.508 34.084V35.62H108.964ZM114.484 28.444C115.076 28.444 115.58 28.292 115.996 27.988C116.428 27.684 116.78 27.292 117.052 26.812C117.34 26.332 117.564 25.804 117.724 25.228C117.884 24.652 117.996 24.084 118.06 23.524C118.14 22.964 118.18 22.46 118.18 22.012C118.18 21.372 118.132 20.836 118.036 20.404C117.94 19.956 117.788 19.62 117.58 19.396C117.388 19.172 117.14 19.06 116.836 19.06C116.468 19.06 116.116 19.228 115.78 19.564C115.46 19.884 115.156 20.348 114.868 20.956C114.596 21.548 114.356 22.252 114.148 23.068C113.94 23.884 113.764 24.788 113.62 25.78C113.572 26.164 113.524 26.564 113.476 26.98C113.428 27.38 113.388 27.804 113.356 28.252C113.564 28.3 113.764 28.348 113.956 28.396C114.164 28.428 114.34 28.444 114.484 28.444ZM127.545 11.38C127.497 11.844 127.441 12.316 127.377 12.796C127.313 13.276 127.249 13.74 127.185 14.188C127.137 14.636 127.089 15.06 127.041 15.46C126.897 16.708 126.761 17.86 126.633 18.916C126.521 19.956 126.417 20.908 126.321 21.772C126.241 22.62 126.169 23.38 126.105 24.052C126.041 24.708 125.993 25.284 125.961 25.78C125.929 26.26 125.913 26.668 125.913 27.004C125.913 27.292 125.945 27.508 126.009 27.652C126.089 27.796 126.201 27.868 126.345 27.868C126.569 27.868 126.801 27.724 127.041 27.436C127.281 27.132 127.505 26.596 127.713 25.828L128.817 26.14C128.737 26.508 128.609 26.9 128.433 27.316C128.257 27.732 128.025 28.132 127.737 28.516C127.465 28.884 127.129 29.188 126.729 29.428C126.329 29.652 125.857 29.764 125.313 29.764C124.705 29.764 124.209 29.596 123.825 29.26C123.441 28.908 123.241 28.348 123.225 27.58C123.225 27.068 123.249 26.452 123.297 25.732C123.345 25.012 123.401 24.228 123.465 23.38C123.545 22.532 123.633 21.66 123.729 20.764C123.825 19.852 123.921 18.948 124.017 18.052C124.129 17.14 124.233 16.276 124.329 15.46C124.377 15.092 124.425 14.756 124.473 14.452C124.521 14.132 124.569 13.828 124.617 13.54C124.345 13.556 124.049 13.572 123.729 13.588C123.409 13.588 123.145 13.596 122.937 13.612L123.033 12.076C123.753 12.076 124.345 12.044 124.809 11.98C125.273 11.9 125.633 11.804 125.889 11.692C126.161 11.58 126.353 11.476 126.465 11.38H127.545ZM136.927 17.236C137.375 17.236 137.895 17.276 138.487 17.356C139.079 17.436 139.679 17.556 140.287 17.716C140.191 18.42 140.079 19.22 139.951 20.116C139.839 21.012 139.719 21.908 139.591 22.804C139.479 23.684 139.383 24.492 139.303 25.228C139.239 25.964 139.207 26.532 139.207 26.932C139.207 27.236 139.239 27.468 139.303 27.628C139.367 27.788 139.487 27.868 139.663 27.868C139.871 27.868 140.095 27.724 140.335 27.436C140.591 27.132 140.831 26.596 141.055 25.828L142.135 26.14C142.087 26.46 141.983 26.828 141.823 27.244C141.663 27.66 141.447 28.06 141.175 28.444C140.919 28.828 140.599 29.148 140.215 29.404C139.831 29.644 139.383 29.764 138.871 29.764C138.327 29.764 137.879 29.596 137.527 29.26C137.175 28.924 136.999 28.364 136.999 27.58C136.999 27.292 137.015 26.972 137.047 26.62C137.095 26.268 137.151 25.924 137.215 25.588H137.167C136.847 26.436 136.511 27.14 136.159 27.7C135.807 28.244 135.447 28.668 135.079 28.972C134.711 29.276 134.343 29.484 133.975 29.596C133.607 29.708 133.247 29.764 132.895 29.764C132.015 29.764 131.271 29.42 130.663 28.732C130.055 28.044 129.751 26.956 129.751 25.468C129.751 24.348 129.903 23.3 130.207 22.324C130.527 21.332 130.991 20.452 131.599 19.684C132.207 18.916 132.951 18.316 133.831 17.884C134.727 17.452 135.759 17.236 136.927 17.236ZM136.087 18.58C135.543 18.58 135.055 18.748 134.623 19.084C134.191 19.404 133.823 19.868 133.519 20.476C133.215 21.068 132.983 21.78 132.823 22.612C132.679 23.444 132.607 24.372 132.607 25.396C132.607 26.18 132.695 26.812 132.871 27.292C133.063 27.756 133.351 27.988 133.735 27.988C134.119 27.988 134.487 27.796 134.839 27.412C135.191 27.028 135.511 26.508 135.799 25.852C136.087 25.196 136.343 24.468 136.567 23.668C136.791 22.852 136.975 22.028 137.119 21.196C137.263 20.348 137.343 19.54 137.359 18.772C137.231 18.724 137.047 18.684 136.807 18.652C136.567 18.604 136.327 18.58 136.087 18.58ZM150.77 16.2812C150.988 16.2812 151.227 16.293 151.484 16.3164C151.742 16.3398 151.965 16.3711 152.152 16.4102L151.895 18.9883C151.73 18.9414 151.527 18.9062 151.285 18.8828C151.051 18.8594 150.84 18.8477 150.652 18.8477C150.16 18.8477 149.691 18.9297 149.246 19.0938C148.801 19.25 148.406 19.4922 148.062 19.8203C147.719 20.1406 147.449 20.543 147.254 21.0273C147.059 21.5117 146.961 22.0742 146.961 22.7148V29.5H144.195V16.5273H146.352L146.727 18.8125H146.855C147.113 18.3516 147.434 17.9297 147.816 17.5469C148.199 17.1641 148.637 16.8594 149.129 16.6328C149.629 16.3984 150.176 16.2812 150.77 16.2812ZM159.641 16.2812C161.281 16.2812 162.52 16.6445 163.355 17.3711C164.199 18.0977 164.621 19.2305 164.621 20.7695V29.5H162.664L162.137 27.6602H162.043C161.676 28.1289 161.297 28.5156 160.906 28.8203C160.516 29.125 160.062 29.3516 159.547 29.5C159.039 29.6562 158.418 29.7344 157.684 29.7344C156.91 29.7344 156.219 29.5938 155.609 29.3125C155 29.0234 154.52 28.5859 154.168 28C153.816 27.4141 153.641 26.6719 153.641 25.7734C153.641 24.4375 154.137 23.4336 155.129 22.7617C156.129 22.0898 157.637 21.7188 159.652 21.6484L161.902 21.5664V20.8867C161.902 19.9883 161.691 19.3477 161.27 18.9648C160.855 18.582 160.27 18.3906 159.512 18.3906C158.863 18.3906 158.234 18.4844 157.625 18.6719C157.016 18.8594 156.422 19.0898 155.844 19.3633L154.953 17.418C155.586 17.082 156.305 16.8086 157.109 16.5977C157.922 16.3867 158.766 16.2812 159.641 16.2812ZM161.891 23.3008L160.215 23.3594C158.84 23.4062 157.875 23.6406 157.32 24.0625C156.766 24.4844 156.488 25.0625 156.488 25.7969C156.488 26.4375 156.68 26.9062 157.062 27.2031C157.445 27.4922 157.949 27.6367 158.574 27.6367C159.527 27.6367 160.316 27.3672 160.941 26.8281C161.574 26.2812 161.891 25.4805 161.891 24.4258V23.3008ZM173.562 16.2812C175.203 16.2812 176.441 16.6445 177.277 17.3711C178.121 18.0977 178.543 19.2305 178.543 20.7695V29.5H176.586L176.059 27.6602H175.965C175.598 28.1289 175.219 28.5156 174.828 28.8203C174.438 29.125 173.984 29.3516 173.469 29.5C172.961 29.6562 172.34 29.7344 171.605 29.7344C170.832 29.7344 170.141 29.5938 169.531 29.3125C168.922 29.0234 168.441 28.5859 168.09 28C167.738 27.4141 167.562 26.6719 167.562 25.7734C167.562 24.4375 168.059 23.4336 169.051 22.7617C170.051 22.0898 171.559 21.7188 173.574 21.6484L175.824 21.5664V20.8867C175.824 19.9883 175.613 19.3477 175.191 18.9648C174.777 18.582 174.191 18.3906 173.434 18.3906C172.785 18.3906 172.156 18.4844 171.547 18.6719C170.938 18.8594 170.344 19.0898 169.766 19.3633L168.875 17.418C169.508 17.082 170.227 16.8086 171.031 16.5977C171.844 16.3867 172.688 16.2812 173.562 16.2812ZM175.812 23.3008L174.137 23.3594C172.762 23.4062 171.797 23.6406 171.242 24.0625C170.688 24.4844 170.41 25.0625 170.41 25.7969C170.41 26.4375 170.602 26.9062 170.984 27.2031C171.367 27.4922 171.871 27.6367 172.496 27.6367C173.449 27.6367 174.238 27.3672 174.863 26.8281C175.496 26.2812 175.812 25.4805 175.812 24.4258V23.3008Z" fill="#05173D"/>
<path d="M12.0422 30.9213C14.4637 30.9213 16.8615 30.4444 19.0986 29.5177C21.3358 28.5911 23.3685 27.2329 25.0807 25.5206C26.793 23.8084 28.1512 21.7757 29.0778 19.5385C30.0045 17.3014 30.4814 14.9036 30.4814 12.4821L12.0422 12.4821L12.0422 30.9213Z" fill="white"/>
</svg>
